<?xml version="1.0" encoding="UTF-8"?>
<svg id="Lager_1" data-name="Lager 1" xmlns="http://www.w3.org/2000/svg" viewBox="0 0 665.04 264.6">
  <defs>
    <style>
      .cls-1 {
        stroke: #ed7015;
        stroke-miterlimit: 10;
        stroke-width: .5px;
      }

      .cls-1, .cls-2 {
        fill: #ed7015;
      }

      .cls-3 {
        fill: #f8f7f7;
      }
    </style>
  </defs>
  <g>
    <path class="cls-3" d="M117.13,264.29l-.12-131.77c1.77-2.78,4.33-3.68,7.17-5.32l99.12-57.28.17,130.98-26.76,16.44-79.58,46.95Z"/>
    <path class="cls-3" d="M104.91,264.6l-39.08-23.75-34.42-20.62-28.61-16.77C2,202.71,0,200.48,0,199.3L.09,70.76l59.53,34.28,41.79,23.91c2.21,1.09,3.56,2.95,3.54,5.67l-.04,129.99Z"/>
    <path class="cls-2" d="M83.58,104.48l-45.93-26.51L5.1,59.31l50.33-28.67L111.62,0l28.26,15.84,78.61,43.29-107.45,61.19c-9.15-5.63-18.06-10.76-27.46-15.84Z"/>
  </g>
  <polygon class="cls-3" points="361.75 160.13 338 160.21 333.8 155.21 323.69 142.46 312.46 128.47 302.12 115.1 292.4 102.09 289.02 98.86 288.97 160.21 264.17 160.2 264.18 60.23 287.98 60.22 292.44 65.63 302.18 78.05 312.92 91.73 324.18 106.45 334 119.54 336.92 122.47 336.95 60.22 361.75 60.22 361.75 160.13"/>
  <path class="cls-3" d="M628.81,214.37c-.51.43-2.46,2.09-3,3.02l-10.2,17.76-10.36,18.19c-2.29,4.03-10.1,3.65-11.91.46l-10.08-17.7-10.33-17.42-4.37-6.18-.03,51.73-20.75-.02v-82.95s25.94-.09,25.94-.09l9.54,17.14,10.76,19.13,5.34,9.07,5.56-9.85,10.64-20.05,7.79-15.34,26.13-.05v82.99s-20.66.03-20.66.03l-.02-49.86Z"/>
  <path class="cls-3" d="M568.45,160.17l-31.76.02-7.43-10.99-9.73-13.95-3.2-3.61-8.22,11.67-7.73,11.04c-1.38,1.97-3.51,4.44-5.4,5.89l-29.96-.07,10.08-14.35,10.61-14.06,10.83-15.22c1.09-1.53,3.78-3.48,3.93-5.68.11-1.74-2.8-4.18-3.75-5.58l-10.62-15.51-11.01-15.05-10.3-14.46,30.25-.1,3.83,4.07,9.34,13.56,8.52,12.3,3.04-3.2,9.89-15.19,7.57-11.48,32.14.02-7.6,10.43-10.68,14.49-10.72,14.53-7.87,10.87,7.96,11.61,10.74,14.57,10.7,14.48,6.57,8.95Z"/>
  <polygon class="cls-3" points="450.86 119.89 408.05 119.88 408.05 139.24 456.84 139.26 456.83 160.21 383.24 160.21 383.25 60.68 456.83 60.56 456.83 81.18 408.05 81.18 408.05 100.56 450.8 100.54 450.86 119.89"/>
  <path class="cls-3" d="M502.98,248.92l-35.93-.02-3.48,8.04-2.85,7.28-23.05-.02,5.12-12.16,10.77-25.7,10.78-25.66,7.95-19.48,25.55.05,10.2,25.86,10.89,25.58,10.21,23.93,3.66,7.5-23.12.16c-.66-.89-2.27-2.84-2.66-3.95l-4.05-11.42ZM496.47,232.75l-9.86-27.38-2.25-3.28-8.53,22.72-3.52,7.97,24.16-.03Z"/>
  <polygon class="cls-3" points="419.6 230.35 382.42 230.37 382.42 247.31 424.59 247.3 424.56 264.23 360.09 264.24 360.09 181.23 424.56 181.21 424.59 198.92 382.42 198.91 382.42 214.26 419.53 214.25 419.6 230.35"/>
  <polygon class="cls-3" points="632.96 160.15 607.35 160.22 607.35 81.18 575.93 81.17 575.95 60.21 665.04 60.21 665.02 81.17 632.96 81.18 632.96 160.15"/>
  <polygon class="cls-3" points="315.42 264.17 293.11 264.24 293.12 198.92 264.17 198.91 264.22 181.24 343.17 181.22 343.32 198.92 315.4 198.91 315.42 264.17"/>
  <polygon class="cls-1" points="463.44 60.35 495.25 60.25 531.15 110.74 495.25 160.52 463.69 160.45 499.13 111.05 463.44 60.35"/>
</svg>